<svg width="50" height="50" viewBox="0 0 50 50" fill="none" xmlns="http://www.w3.org/2000/svg">
<path d="M14.059 42.4037C14.6478 41.8149 15.6025 41.8149 16.1913 42.4037C16.7802 42.9926 16.7802 43.9472 16.1913 44.5361L11.4451 49.2823C10.8563 49.8712 9.90156 49.8712 9.31272 49.2823C8.72388 48.6935 8.72388 47.7388 9.31272 47.15L14.059 42.4037Z" fill="#F57A21"/>
<path d="M0.611328 49.3835C1.2024 49.9383 2.13143 49.927 2.70876 49.3497L11.8573 40.2011C12.4346 39.6238 12.4459 38.6948 11.8911 38.1037L0.611328 49.3835Z" fill="#F57A21"/>
<path d="M0.610904 49.385C0.0561409 48.7939 0.0674235 47.8649 0.644752 47.2876L9.79329 38.139C10.3706 37.5617 11.2996 37.5504 11.8907 38.1052L0.610904 49.385Z" fill="#FDB43A"/>
<path d="M5.39099 33.7367C5.97983 33.1478 6.93452 33.1478 7.52336 33.7367C8.11219 34.3255 8.11219 35.2802 7.52336 35.869L2.77712 40.6153C2.18828 41.2041 1.23359 41.2041 0.644753 40.6153C0.0559157 40.0264 0.0559157 39.0717 0.644753 38.4829L5.39099 33.7367Z" fill="#FDB43A"/>
<path d="M21.8672 40.6519C24.3807 40.2472 30.1756 38.7244 36.6803 33.3806L36.0948 41.6151C36.0148 42.7401 35.4121 43.7625 34.4667 44.3773L26.8468 49.3323C25.2335 50.3814 23.0769 49.3966 22.8132 47.4903L21.8672 40.6519Z" fill="#D82E44"/>
<path d="M16.8481 13.0421C11.4618 19.4878 9.84235 25.276 9.38307 27.9267L2.26927 26.9426C0.363004 26.6788 -0.621808 24.5223 0.427291 22.909L5.38231 15.2891C5.99711 14.3436 7.0195 13.741 8.14443 13.661L16.8481 13.0421Z" fill="#E45A6E"/>
<path d="M9.90589 31.0876L14.4112 35.5929L20.0861 29.9181L11.5216 21.3536C9.40097 25.9437 9.19794 29.1755 9.21803 29.4367C9.22336 29.5064 9.22447 29.5751 9.22561 29.6446L9.22583 29.646C9.23206 30.0224 9.23885 30.4206 9.90589 31.0876Z" fill="#466288"/>
<path d="M18.9136 40.0993L14.4082 35.5939L20.0831 29.9191L28.6476 38.4836C24.0574 40.6042 20.8257 40.8072 20.5644 40.7871C20.4948 40.7818 20.426 40.7807 20.3565 40.7796L20.3551 40.7793C19.9787 40.7731 19.5806 40.7663 18.9136 40.0993Z" fill="#354A67"/>
<path d="M20.0801 29.9191L28.6447 38.4837C31.9106 36.9749 35.8642 34.4954 39.9247 30.4348C50.2426 20.1169 50.105 7.66666 49.9675 2.30135C49.9024 1.71549 49.6279 1.18061 49.2232 0.775917L20.0801 29.9191Z" fill="#D7D6FB"/>
<path d="M20.0802 29.919L11.5156 21.3544C13.0244 18.0884 15.5039 14.1349 19.5645 10.0743C29.8824 -0.243584 42.3326 -0.106011 47.698 0.0315612C48.2838 0.0966558 48.8187 0.371136 49.2234 0.775803L20.0802 29.919Z" fill="#F1F1FB"/>
<path d="M29.0898 20.9081C31.977 23.7953 36.6581 23.7953 39.5453 20.9081C42.4325 18.0209 42.4325 13.3398 39.5453 10.4526L29.0898 20.9081Z" fill="#354A67"/>
<path d="M29.0912 20.9071C26.204 18.0199 26.204 13.3388 29.0912 10.4516C31.9784 7.56443 36.6595 7.56443 39.5467 10.4516L29.0912 20.9071Z" fill="#466288"/>
<path d="M31.1562 18.8437C32.9038 20.5912 35.737 20.5912 37.4846 18.8437C39.2321 17.0962 39.2321 14.2629 37.4846 12.5154L31.1562 18.8437Z" fill="#0590FB"/>
<path d="M31.1563 18.844C29.4088 17.0965 29.4088 14.2632 31.1563 12.5157C32.9039 10.7682 35.7371 10.7682 37.4847 12.5157L31.1563 18.844Z" fill="#4BBEFD"/>
</svg>
