<svg width="50" height="50" viewBox="0 0 50 50" fill="none" xmlns="http://www.w3.org/2000/svg">
<g clip-path="url(#clip0)">
<path d="M25.1591 2.5H23.3982C22.1315 2.5 21.0844 3.48756 21.0103 4.75212C20.9559 5.68239 20.3661 6.49634 19.499 6.83784L18.4722 7.24228C17.6713 7.55771 16.7603 7.3811 16.1353 6.78927C15.2671 5.96712 13.9034 5.98154 13.0527 6.82185L11.6278 8.22953C10.7629 9.08398 10.7271 10.469 11.5467 11.367C12.1368 12.0136 12.3014 12.9425 11.9693 13.7525L11.5251 14.836C11.1823 15.6722 10.391 16.2383 9.48887 16.2926C8.24619 16.3675 7.27673 17.3971 7.27673 18.6421V20.5101C7.27673 21.7459 8.25222 22.7614 9.48703 22.811C10.3871 22.8472 11.1835 23.4049 11.5252 24.2384L11.9672 25.3163C12.3013 26.1314 12.1424 27.0657 11.5574 27.7244C10.7326 28.6533 10.7908 30.0683 11.6892 30.9262L13.0792 32.2537C13.9261 33.0624 15.252 33.0859 16.1269 32.3075C16.7603 31.7441 17.6568 31.5847 18.4456 31.8954L19.5548 32.3323C20.3882 32.6605 20.9558 33.442 21.0103 34.336C21.0844 35.5519 22.0921 36.5 23.3103 36.5H25.2471C26.4563 36.5 27.45 35.5459 27.4991 34.3377C27.5353 33.4458 28.0946 32.6593 28.9251 32.3322L30.0086 31.9054C30.8167 31.5872 31.7341 31.7373 32.3986 32.2965C33.3337 33.0833 34.7142 33.0284 35.5838 32.1698L36.8465 30.9231C37.7213 30.0594 37.7777 28.6657 36.9755 27.7342C36.4017 27.0678 36.2504 26.1357 36.584 25.322L37.0282 24.2384C37.37 23.4049 38.1663 22.8472 39.0664 22.811C40.3012 22.7614 41.2767 21.7459 41.2767 20.5101V18.6421C41.2767 17.3971 40.3073 16.3675 39.0646 16.2926C38.1625 16.2383 37.3712 15.6722 37.0284 14.836L36.5816 13.7462C36.2502 12.9379 36.407 12.0115 36.986 11.3574C37.783 10.4569 37.7487 9.0936 36.9074 8.23435L35.607 6.90618C34.7356 6.01611 33.3179 5.96966 32.3901 6.80079C31.7342 7.38835 30.8029 7.55554 29.9836 7.23283L28.9809 6.83793C28.1167 6.49754 27.5353 5.67855 27.4991 4.75042C27.45 3.49359 26.4169 2.5 25.1591 2.5Z" stroke="#58A5CC" stroke-width="2"/>
<path d="M32.8276 19.5371C32.8276 24.2254 29.0446 28.0186 24.3872 28.0186C19.7299 28.0186 15.9469 24.2254 15.9469 19.5371C15.9469 14.8488 19.7299 11.0556 24.3872 11.0556C29.0446 11.0556 32.8276 14.8488 32.8276 19.5371Z" stroke="#58A5CC" stroke-width="2"/>
<path d="M43.5538 43.4465C43.5539 43.4465 43.5539 43.4478 43.5535 43.4502C43.5535 43.4478 43.5537 43.4465 43.5538 43.4465ZM43.4101 43.2357C43.529 43.3633 43.5502 43.4335 43.5534 43.4509C43.5502 43.4683 43.529 43.5384 43.4101 43.666C43.2469 43.8411 42.9574 44.0581 42.4994 44.2958C41.5858 44.7699 40.1984 45.2266 38.4002 45.6214C34.82 46.4072 29.8261 46.9017 24.2767 46.9017C18.7274 46.9017 13.7335 46.4072 10.1533 45.6214C8.35511 45.2266 6.96764 44.7699 6.05408 44.2958C5.59609 44.0581 5.30662 43.8411 5.14341 43.666C5.02449 43.5384 5.00329 43.4683 5.00011 43.4509C5.00329 43.4335 5.02449 43.3633 5.14341 43.2357C5.30662 43.0607 5.59609 42.8437 6.05408 42.606C6.96764 42.1319 8.35511 41.6751 10.1533 41.2804C13.7335 40.4945 18.7274 40 24.2767 40C29.8261 40 34.82 40.4945 38.4002 41.2804C40.1984 41.6751 41.5858 42.1319 42.4994 42.606C42.9574 42.8437 43.2469 43.0607 43.4101 43.2357ZM4.99966 43.4465C4.99976 43.4466 4.99996 43.4478 5 43.4502C4.99958 43.4478 4.99957 43.4465 4.99966 43.4465ZM4.99966 43.4552C4.99957 43.4552 4.99958 43.454 5 43.4515C4.99996 43.454 4.99976 43.4552 4.99966 43.4552ZM43.5535 43.4515C43.5539 43.454 43.5539 43.4552 43.5538 43.4552C43.5537 43.4552 43.5535 43.454 43.5535 43.4515Z" stroke="#F3F3F3" stroke-width="2"/>
</g>
<defs>
<clipPath id="clip0">
<rect width="40.5535" height="46.9017" fill="white" transform="translate(4 1)"/>
</clipPath>
</defs>
</svg>
