<svg width="50" height="50" viewBox="0 0 50 50" fill="none" xmlns="http://www.w3.org/2000/svg">
<path fill-rule="evenodd" clip-rule="evenodd" d="M33.2867 49.3816V49.3799H30.319V46.8644H33.2867V15.934H30.319V13.4184H35.8022V49.3799L35.1877 49.3816H33.2867Z" fill="#BDBDBD"/>
<path d="M35.1876 14.033V15.3194V47.4788V48.7653V48.7672H33.9011V48.7653H30.9334V47.4788H33.9011V15.3194H30.9334V14.033H33.9011H35.1876ZM36.4168 12.8039H35.1877H33.9013H30.9336H29.7045V14.033V15.3194V16.5485H30.9336H32.6722V46.2496H30.9336H29.7045V47.4786V48.7651V49.9941H30.9336H32.6722L33.9013 49.9961H35.1877H36.4168V48.7672V47.4788V15.3194V14.033V12.8039Z" fill="#1D1D1D"/>
<path fill-rule="evenodd" clip-rule="evenodd" d="M20.8763 49.3816V13.4203L21.4907 13.4184H23.3916V13.4203H26.3593V15.9359H23.3916V46.8663H26.3593V49.3816H20.8763Z" fill="#BDBDBD"/>
<path d="M22.7772 14.033V14.0349H25.7448V15.3213H22.7772V47.4807H25.7448V48.7672H22.7772H21.4907V47.4807V15.3213V14.0349V14.033H22.7772ZM22.7772 12.8039H21.4907H20.2617V14.033V15.3213V47.4807V48.7672V49.9962H21.4907H22.7772H25.7448H26.9739V48.7672V47.4807V46.2517H25.7448H24.0062V16.5504H25.7448H26.9739V15.3213V14.0349V12.8058H25.7448H24.0062L22.7772 12.8039Z" fill="#1D1D1D"/>
<path d="M25.3157 47.4443C24.9604 47.4443 24.6724 47.1562 24.6724 46.801C24.6724 46.2522 24.7554 45.7608 24.9188 45.3406C25.0786 44.9291 25.3001 44.5542 25.5766 44.2267C25.8396 43.9157 26.1506 43.6265 26.5014 43.3664C26.8195 43.1309 27.1585 42.8891 27.5095 42.6472C27.6927 42.5199 27.8913 42.3882 28.0974 42.2574C28.2634 42.1519 28.4171 42.0339 28.554 41.9067C28.6722 41.7966 28.7727 41.6711 28.8521 41.5343C28.9066 41.4402 28.9332 41.3299 28.9332 41.1969C28.9332 40.8795 28.8236 40.7737 28.7878 40.7389C28.7161 40.6695 28.6025 40.5897 28.3608 40.5897C28.2531 40.5897 28.1696 40.6092 28.1126 40.6476C28.0312 40.7024 27.9672 40.7737 27.9164 40.8653C27.8492 40.9869 27.8001 41.1257 27.7708 41.278C27.7363 41.4561 27.7189 41.6353 27.7189 41.8104C27.7189 42.1656 27.4309 42.4536 27.0757 42.4536H25.5011C25.1542 42.4536 24.8697 42.1786 24.8582 41.8319C24.8403 41.299 24.9045 40.7931 25.049 40.3284C25.197 39.8519 25.4242 39.4272 25.7243 39.0661C26.0337 38.694 26.4259 38.4005 26.8901 38.1947C27.3457 37.9927 27.8677 37.8904 28.4419 37.8904C28.882 37.8904 29.309 37.9607 29.711 38.0993C30.1206 38.2405 30.4878 38.4474 30.803 38.7145C31.1266 38.9892 31.3864 39.3298 31.5757 39.7275C31.7669 40.13 31.8639 40.5814 31.8639 41.0692C31.8639 41.5674 31.7788 42.0103 31.6111 42.3856C31.4504 42.7444 31.2346 43.0681 30.9693 43.3474C30.7231 43.6069 30.4399 43.8459 30.128 44.0567C29.8509 44.2439 29.572 44.4295 29.2914 44.6126C29.2253 44.6557 29.1596 44.6998 29.0941 44.7446H31.2671C31.6223 44.7446 31.9103 45.0326 31.9103 45.3879V46.8004C31.9103 47.1556 31.6223 47.4436 31.2671 47.4436H25.3157V47.4443Z" fill="#BDBDBD"/>
<path d="M28.4417 38.5343C28.8122 38.5343 29.1654 38.5922 29.5011 38.708C29.8369 38.8237 30.1321 38.9898 30.3869 39.2058C30.6416 39.4219 30.8442 39.6884 30.9947 40.0047C31.1452 40.3213 31.2203 40.6762 31.2203 41.0699C31.2203 41.4791 31.1547 41.8303 31.0235 42.1235C30.8923 42.417 30.7186 42.6775 30.5025 42.905C30.2864 43.1329 30.0413 43.3392 29.7673 43.5244C29.4933 43.7097 29.2173 43.8932 28.9394 44.0744C28.6616 44.2558 28.3912 44.4507 28.129 44.6591C27.8665 44.8675 27.635 45.1106 27.4343 45.3885H31.2666V46.801H25.3155C25.3155 46.3303 25.3829 45.9211 25.5181 45.5737C25.653 45.2264 25.8365 44.9157 26.0681 44.6417C26.2996 44.3679 26.5717 44.1149 26.8843 43.8833C27.1969 43.6518 27.5269 43.4164 27.8743 43.1771C28.0518 43.0537 28.2407 42.9282 28.4416 42.8008C28.6423 42.6734 28.8254 42.5327 28.9915 42.3782C29.1575 42.2238 29.2964 42.0502 29.4083 41.8572C29.5201 41.6644 29.5762 41.4444 29.5762 41.1972C29.5762 40.8036 29.4622 40.4968 29.2347 40.2768C29.007 40.0568 28.7154 39.9468 28.3605 39.9468C28.1211 39.9468 27.9185 40.0029 27.7527 40.1147C27.5866 40.2266 27.4534 40.3734 27.3532 40.5547C27.2527 40.736 27.1813 40.9367 27.139 41.1567C27.0964 41.3767 27.0754 41.5949 27.0754 41.8109H25.5007C25.4851 41.3478 25.5393 40.9176 25.6628 40.5199C25.7863 40.1224 25.9714 39.7752 26.2186 39.4779C26.4656 39.1809 26.7761 38.9493 27.1506 38.7832C27.5251 38.6173 27.9556 38.5343 28.4417 38.5343ZM28.4417 37.2478C27.7771 37.2478 27.1673 37.3688 26.6295 37.6072C26.074 37.8536 25.603 38.2062 25.2295 38.6555C24.875 39.082 24.6075 39.5808 24.4344 40.1385C24.2686 40.672 24.1948 41.2493 24.2153 41.8541C24.2386 42.5474 24.8073 43.0975 25.5009 43.0975H25.8048C25.54 43.32 25.2991 43.5592 25.0859 43.8113C24.7628 44.1937 24.505 44.6298 24.3191 45.1081C24.1268 45.6022 24.0292 46.1721 24.0292 46.8012C24.0292 47.5116 24.6052 48.0876 25.3157 48.0876H31.2668C31.9772 48.0876 32.5532 47.5116 32.5532 46.8012V45.3887C32.5532 44.6782 31.9772 44.1022 31.2668 44.1022H31.115C31.2271 44.0019 31.3342 43.8978 31.436 43.7906C31.7511 43.4587 32.0076 43.0745 32.198 42.6492C32.4031 42.1905 32.5069 41.6594 32.5069 41.0702C32.5069 40.486 32.3891 39.9418 32.1567 39.4528C31.9275 38.9715 31.6124 38.5589 31.2192 38.2252C30.8429 37.906 30.406 37.6595 29.9207 37.4921C29.4508 37.3298 28.9534 37.2478 28.4417 37.2478Z" fill="#1D1D1D"/>
<path d="M26.0354 29.4659C26.1935 28.9296 26.4077 28.4991 26.678 28.175C26.9482 27.8508 27.2627 27.6192 27.6216 27.4803C27.9806 27.3413 28.3607 27.2719 28.7621 27.2719C29.1712 27.2719 29.5552 27.3413 29.9141 27.4803C30.273 27.6192 30.5895 27.8508 30.8635 28.175C31.1374 28.4991 31.3535 28.9295 31.5119 29.4659C31.67 30.0025 31.7492 30.6642 31.7492 31.4516C31.7492 32.262 31.67 32.9393 31.5119 33.4835C31.3536 34.0277 31.1374 34.4619 30.8635 34.786C30.5893 35.1102 30.273 35.3418 29.9141 35.4807C29.5552 35.6197 29.1712 35.6891 28.7621 35.6891C28.3607 35.6891 27.9806 35.6197 27.6216 35.4807C27.2627 35.3418 26.9482 35.1102 26.678 34.786C26.4077 34.4619 26.1935 34.0277 26.0354 33.4835C25.8772 32.9393 25.7981 32.262 25.7981 31.4516C25.7983 30.6642 25.8772 30.0025 26.0354 29.4659Z" fill="#1D1D1D"/>
<path d="M28.7622 36.3324C28.2829 36.3324 27.8209 36.2478 27.3896 36.0807C26.9292 35.9024 26.5233 35.6054 26.184 35.1977C25.8581 34.8068 25.6003 34.2904 25.4179 33.6631C25.2435 33.0636 25.155 32.3198 25.155 31.4517C25.155 30.6062 25.2438 29.8769 25.4186 29.284C25.6011 28.6654 25.8586 28.1537 26.1842 27.7633C26.5233 27.356 26.9292 27.059 27.3896 26.8806C27.821 26.7136 28.2829 26.6288 28.7622 26.6288C29.2492 26.6288 29.715 26.7136 30.1465 26.8806C30.6052 27.0583 31.0118 27.354 31.3549 27.7599C31.6855 28.1512 31.9459 28.6638 32.1287 29.284C32.3038 29.8779 32.3926 30.6073 32.3926 31.4519C32.3926 32.3188 32.3042 33.0628 32.1295 33.6633C31.9465 34.2922 31.686 34.8097 31.3551 35.2014C31.0118 35.6071 30.6052 35.903 30.1465 36.0809C29.7149 36.2478 29.2492 36.3324 28.7622 36.3324ZM28.7622 29.2697C28.6981 29.2697 28.6103 29.2771 28.5574 29.3123C28.4871 29.3593 28.4302 29.4204 28.3831 29.4995C28.3175 29.6098 28.2647 29.7393 28.2264 29.8845C28.1806 30.0582 28.1475 30.2352 28.128 30.4108C28.107 30.5991 28.0947 30.7839 28.0912 30.9603C28.0873 31.1529 28.0856 31.3163 28.0856 31.4516C28.0856 31.6752 28.0931 31.9473 28.1079 32.2604C28.1211 32.5413 28.1629 32.8152 28.2319 33.0751C28.2895 33.2922 28.3757 33.4679 28.4948 33.6131C28.5189 33.6427 28.5685 33.7029 28.7622 33.7029C28.9718 33.7029 29.0274 33.6366 29.0512 33.6081C29.1721 33.4641 29.2587 33.2897 29.3157 33.0752C29.3847 32.816 29.4264 32.542 29.4397 32.2606C29.4545 31.9443 29.4621 31.6722 29.4621 31.4517C29.4621 31.3163 29.4601 31.1528 29.4564 30.9609C29.4531 30.7881 29.4392 30.607 29.4154 30.4224C29.3916 30.2392 29.3569 30.0543 29.3127 29.8736C29.2788 29.7359 29.2289 29.6129 29.1644 29.5087C29.1144 29.4283 29.0536 29.3649 28.9788 29.3162C28.9312 29.2855 28.8582 29.2697 28.7622 29.2697Z" fill="#BDBDBD"/>
<path d="M28.7621 27.2719C29.1712 27.2719 29.5552 27.3413 29.9141 27.4803C30.273 27.6192 30.5895 27.8508 30.8635 28.175C31.1373 28.4991 31.3535 28.9295 31.5119 29.4659C31.6699 30.0025 31.7492 30.6642 31.7492 31.4516C31.7492 32.262 31.6699 32.9393 31.5119 33.4835C31.3536 34.0277 31.1373 34.4619 30.8635 34.786C30.5893 35.1102 30.273 35.3418 29.9141 35.4807C29.5552 35.6197 29.1712 35.6891 28.7621 35.6891C28.3607 35.6891 27.9805 35.6197 27.6216 35.4807C27.2627 35.3418 26.9482 35.1102 26.678 34.786C26.4077 34.4619 26.1935 34.0277 26.0354 33.4835C25.8772 32.9393 25.7981 32.262 25.7981 31.4516C25.7981 30.6642 25.877 30.0025 26.0354 29.4659C26.1935 28.9296 26.4077 28.4991 26.678 28.175C26.9482 27.8508 27.2627 27.6192 27.6216 27.4803C27.9807 27.3413 28.3607 27.2719 28.7621 27.2719ZM28.7621 34.3461C29.1017 34.3461 29.3622 34.2382 29.5436 34.0219C29.7248 33.8059 29.8562 33.5454 29.9372 33.2404C30.0183 32.9356 30.0664 32.6192 30.082 32.291C30.0974 31.9629 30.1051 31.6831 30.1051 31.4516C30.1051 31.3126 30.1032 31.1447 30.0993 30.9479C30.0955 30.7511 30.08 30.5485 30.053 30.3401C30.0258 30.1316 29.9873 29.9252 29.9372 29.7206C29.8871 29.5162 29.8117 29.3328 29.7115 29.1707C29.611 29.0086 29.4836 28.8774 29.3294 28.777C29.1749 28.6767 28.9858 28.6265 28.7621 28.6265C28.5381 28.6265 28.351 28.6767 28.2005 28.777C28.05 28.8774 27.9264 29.0086 27.83 29.1707C27.7334 29.3328 27.6581 29.5162 27.6043 29.7206C27.5502 29.9252 27.5116 30.1316 27.4885 30.3401C27.4653 30.5485 27.4517 30.7511 27.448 30.9479C27.4439 31.1447 27.4422 31.3126 27.4422 31.4516C27.4422 31.6831 27.4497 31.9629 27.4653 32.291C27.4808 32.6192 27.529 32.9355 27.61 33.2404C27.6911 33.5454 27.8204 33.8059 27.9979 34.0219C28.1754 34.2382 28.4302 34.3461 28.7621 34.3461ZM28.7621 25.9854C28.2031 25.9854 27.6631 26.0848 27.1571 26.2807C26.5938 26.4987 26.0999 26.8589 25.6895 27.3515C25.3076 27.8096 25.0087 28.3986 24.8014 29.102C24.6063 29.7629 24.5116 30.5316 24.5116 31.4516C24.5116 32.3932 24.606 33.1754 24.8001 33.8429C25.0072 34.5556 25.3067 35.1503 25.6899 35.61C26.0998 36.1021 26.5936 36.4623 27.1571 36.6805C27.6633 36.8764 28.2031 36.9757 28.7619 36.9757C29.3284 36.9757 29.8723 36.8765 30.3782 36.6807C30.9386 36.4637 31.4323 36.1058 31.8457 35.6168C32.2357 35.1552 32.5388 34.5587 32.7469 33.8431C32.9411 33.1748 33.0353 32.3926 33.0353 31.4517C33.0353 30.5327 32.9405 29.7642 32.7456 29.1023C32.537 28.3959 32.2345 27.8048 31.846 27.3449C31.4321 26.8554 30.9384 26.4974 30.3782 26.2807C29.8728 26.0848 29.3289 25.9854 28.7621 25.9854ZM28.7736 32.4995C28.7624 32.4111 28.7547 32.3214 28.7503 32.2307C28.7359 31.9259 28.7286 31.664 28.7286 31.4516C28.7286 31.3198 28.7304 31.1607 28.7341 30.9741C28.7371 30.8165 28.7482 30.6515 28.7671 30.4822C28.768 30.4729 28.7691 30.4636 28.7703 30.4544C28.7727 30.4718 28.7751 30.4891 28.7773 30.5065C28.7979 30.6662 28.81 30.8239 28.813 30.9738C28.8167 31.1602 28.8187 31.3198 28.8187 31.4517C28.8187 31.6611 28.8113 31.9232 28.797 32.2308C28.7926 32.3215 28.7849 32.4112 28.7736 32.4995Z" fill="#1D1D1D"/>
<path d="M28.2917 24.9955C27.7659 24.9955 27.2758 24.9171 26.8345 24.7626C26.3746 24.6015 25.9751 24.3608 25.6473 24.047C25.3186 23.7333 25.0621 23.3462 24.8855 22.8974C24.7125 22.4578 24.6292 21.9541 24.6385 21.4006C24.6443 21.0496 24.9304 20.7682 25.2816 20.7682H26.8446C26.9557 20.7682 27.0606 20.7965 27.1519 20.8462C27.0997 20.7531 27.0698 20.6458 27.0698 20.5315V19.3795C27.0603 19.3798 27.0509 19.3801 27.0415 19.3801H25.4783C25.3035 19.3801 25.1364 19.309 25.0151 19.1833C24.8939 19.0575 24.8291 18.8877 24.8355 18.7132C24.8534 18.2255 24.9444 17.7706 25.1055 17.361C25.2715 16.9386 25.5098 16.5677 25.8131 16.2595C26.1178 15.9499 26.4862 15.7078 26.9077 15.54C27.3222 15.3754 27.7839 15.2919 28.2802 15.2919C28.6646 15.2919 29.0536 15.3496 29.436 15.4633C29.8316 15.5812 30.1933 15.7611 30.5113 15.9983C30.8391 16.2432 31.1089 16.5452 31.3134 16.8963C31.5328 17.2722 31.6442 17.7047 31.6442 18.1811C31.6442 18.6959 31.5156 19.1616 31.2621 19.5653C31.2155 19.6395 31.165 19.7096 31.1108 19.7758C31.2273 19.8775 31.3339 19.9912 31.4302 20.1169C31.7719 20.5622 31.9453 21.0951 31.9453 21.7012C31.9453 22.2246 31.8386 22.7032 31.6283 23.1235C31.4217 23.5369 31.1399 23.8891 30.7908 24.1702C30.4523 24.4429 30.059 24.652 29.6218 24.7914C29.198 24.9268 28.7503 24.9955 28.2917 24.9955ZM27.4055 21.0967C27.4542 21.1834 27.4834 21.2826 27.4872 21.3884C27.4928 21.5458 27.5181 21.6972 27.5625 21.8379C27.5995 21.9564 27.6508 22.0562 27.7146 22.135C27.7712 22.2048 27.8423 22.26 27.9318 22.3039C28.0158 22.345 28.1293 22.3658 28.2687 22.3658C28.4802 22.3658 28.6421 22.3092 28.7778 22.1879C28.8558 22.1181 28.9454 22.0038 28.9454 21.7354C28.9454 21.5365 28.91 21.4362 28.8914 21.4108C28.8433 21.3456 28.7886 21.3032 28.715 21.2739C28.5953 21.2266 28.4591 21.1987 28.3104 21.1909C28.1021 21.18 27.9013 21.1744 27.7128 21.1744C27.6015 21.1747 27.497 21.1464 27.4055 21.0967ZM27.7128 18.7304C27.7315 18.7304 27.7501 18.7312 27.7689 18.7328C27.8387 18.739 27.9124 18.7422 27.9878 18.7422C28.0653 18.7422 28.1468 18.7388 28.2305 18.7324C28.3633 18.7222 28.4812 18.6947 28.591 18.6483C28.6675 18.6159 28.7238 18.5749 28.769 18.5188C28.7759 18.5101 28.7946 18.4654 28.7946 18.3665C28.7946 18.1547 28.7232 18.0975 28.6889 18.0702C28.5717 17.9764 28.4456 17.933 28.2916 17.933C27.9817 17.933 27.8937 18.0464 27.8563 18.0948C27.7357 18.2506 27.6792 18.4567 27.6844 18.7248C27.6845 18.7269 27.6845 18.729 27.6845 18.7311C27.694 18.7306 27.7035 18.7304 27.7128 18.7304Z" fill="#BDBDBD"/>
<path d="M28.28 15.935C28.6043 15.935 28.9283 15.9834 29.2527 16.0797C29.5769 16.1763 29.8681 16.3209 30.1268 16.5139C30.3852 16.707 30.5957 16.9423 30.7578 17.2201C30.9199 17.498 31.001 17.8183 31.001 18.1811C31.001 18.5748 30.9064 18.9221 30.7173 19.2231C30.528 19.5242 30.2445 19.7289 29.8663 19.8368V19.8599C30.3138 19.9604 30.6652 20.1766 30.9199 20.5083C31.1746 20.8402 31.302 21.2377 31.302 21.7008C31.302 22.1254 31.219 22.5038 31.0531 22.8355C30.8871 23.1674 30.6652 23.4453 30.3873 23.6691C30.1093 23.8931 29.789 24.0628 29.4262 24.1786C29.0634 24.2943 28.6854 24.3522 28.2915 24.3522C27.836 24.3522 27.4213 24.2866 27.0469 24.1554C26.6725 24.0243 26.354 23.8333 26.0919 23.5823C25.8293 23.3316 25.6267 23.0248 25.484 22.6618C25.3411 22.2992 25.2735 21.8822 25.2814 21.4114H26.8444C26.8522 21.6275 26.8869 21.834 26.9486 22.0308C27.0104 22.2277 27.0992 22.3975 27.2148 22.5403C27.3307 22.6832 27.4753 22.7969 27.649 22.8818C27.8226 22.9669 28.0291 23.0092 28.2685 23.0092C28.639 23.0092 28.9517 22.8953 29.2064 22.6676C29.4611 22.4401 29.5884 22.1292 29.5884 21.7356C29.5884 21.427 29.5285 21.1914 29.409 21.0293C29.2892 20.8672 29.1369 20.7497 28.9517 20.6762C28.7664 20.6029 28.5638 20.5604 28.3438 20.5488C28.1238 20.5373 27.9133 20.5315 27.7128 20.5315V19.3737C27.8016 19.3814 27.8932 19.3854 27.9876 19.3854C28.082 19.3854 28.1796 19.3815 28.28 19.3737C28.4806 19.3582 28.6678 19.314 28.8415 19.2405C29.0152 19.1672 29.158 19.061 29.2699 18.9221C29.3816 18.7832 29.4378 18.5979 29.4378 18.3664C29.4378 18.019 29.322 17.7527 29.0904 17.5675C28.859 17.3822 28.5926 17.2896 28.2915 17.2896C27.8747 17.2896 27.5602 17.4268 27.3479 17.7006C27.1357 17.9748 27.0334 18.3201 27.0413 18.7369H25.4781C25.4935 18.3201 25.5686 17.9399 25.7038 17.5964C25.8388 17.2531 26.028 16.9579 26.2712 16.7107C26.5143 16.4637 26.8055 16.2727 27.1453 16.1376C27.4849 16.0027 27.8632 15.935 28.28 15.935ZM28.28 14.6485C27.7019 14.6485 27.1603 14.7472 26.6701 14.9421C26.165 15.1432 25.7225 15.4345 25.3546 15.8083C24.9899 16.1787 24.7046 16.6221 24.5066 17.1261C24.319 17.6029 24.2133 18.129 24.1926 18.6894C24.1797 19.0385 24.3093 19.378 24.5518 19.6297C24.7943 19.8813 25.1286 20.0233 25.4781 20.0233H26.4262V20.1249H25.2812C24.5792 20.1249 24.0067 20.6879 23.9949 21.39C23.9843 22.0283 24.0826 22.6147 24.287 23.1335C24.4976 23.6691 24.8061 24.1334 25.2034 24.5127C25.5969 24.8893 26.0745 25.1778 26.6217 25.3695C27.1313 25.548 27.6932 25.6387 28.2917 25.6387C28.8166 25.6387 29.3299 25.5597 29.8176 25.4041C30.3304 25.2404 30.7939 24.9937 31.1944 24.6709C31.6157 24.3316 31.9552 23.9076 32.2036 23.4109C32.4588 22.9008 32.5883 22.3254 32.5883 21.701C32.5883 20.9502 32.3702 20.2854 31.9402 19.7252C31.9348 19.7181 31.9293 19.711 31.9238 19.704C32.1652 19.2461 32.2873 18.7351 32.2873 18.1811C32.2873 17.5893 32.1466 17.0479 31.869 16.5721C31.6204 16.1458 31.2933 15.7795 30.8966 15.4833C30.5168 15.2001 30.0876 14.9862 29.62 14.8469C29.1771 14.7151 28.7265 14.6485 28.28 14.6485Z" fill="#1D1D1D"/>
<path fill-rule="evenodd" clip-rule="evenodd" d="M13.025 49.3816V49.3799H10.0573V46.8644H13.025V15.934H10.0573V13.4184H15.5405V49.3799L14.9261 49.3816H13.025Z" fill="#BDBDBD"/>
<path d="M14.9259 14.033V15.3194V47.4788V48.7653V48.7672H13.6394V48.7653H10.6719V47.4788H13.6396V15.3194H10.6719V14.033H13.6396H14.9259ZM16.1551 12.8039H14.9261H13.6396H10.6719H9.44287V14.033V15.3194V16.5485H10.6719H12.4106V46.2496H10.6719H9.44287V47.4786V48.7651V49.9941H10.6719H12.4106L13.6396 49.9961H14.9261H16.1551V48.7672V47.4788V15.3194V14.033V12.8039Z" fill="#1D1D1D"/>
<path fill-rule="evenodd" clip-rule="evenodd" d="M0.614441 49.3816V13.4203L1.22904 13.4184H3.1301V13.4203H6.09779V15.9359H3.1301V46.8663H6.09779V49.3816H0.614441Z" fill="#BDBDBD"/>
<path d="M2.5155 14.033V14.0349H5.48318V15.3213H2.5155V47.4807H5.48318V48.7672H2.5155H1.22904V47.4807V15.3213V14.0349V14.033H2.5155ZM2.5155 12.8039H1.22904H0V14.033V15.3213V47.4807V48.7672V49.9962H1.22904H2.5155H5.48318H6.71223V48.7672V47.4807V46.2517H5.48318H3.74454V16.5504H5.48318H6.71223V15.3213V14.0349V12.8058H5.48318H3.74454L2.5155 12.8039Z" fill="#1D1D1D"/>
<path d="M5.32692 40.6531C5.48499 40.1168 5.69919 39.6863 5.9695 39.3621C6.23966 39.0379 6.5542 38.8064 6.91312 38.6674C7.27204 38.5285 7.65218 38.459 8.05356 38.459C8.46265 38.459 8.84666 38.5285 9.20558 38.6674C9.5645 38.8064 9.88096 39.0379 10.155 39.3621C10.4288 39.6863 10.645 40.1166 10.8033 40.6531C10.9614 41.1897 11.0407 41.8514 11.0407 42.6387C11.0407 43.4492 10.9614 44.1265 10.8033 44.6707C10.6451 45.2148 10.4288 45.649 10.155 45.9732C9.8808 46.2974 9.5645 46.5289 9.20558 46.6679C8.84666 46.8068 8.46265 46.8763 8.05356 46.8763C7.65218 46.8763 7.27204 46.8068 6.91312 46.6679C6.5542 46.5289 6.23966 46.2974 5.9695 45.9732C5.69919 45.649 5.48499 45.2148 5.32692 44.6707C5.16869 44.1265 5.08957 43.4492 5.08957 42.6387C5.08957 41.8514 5.16869 41.1897 5.32692 40.6531Z" fill="#1D1D1D"/>
<path d="M8.05353 47.5195C7.57449 47.5195 7.11282 47.4349 6.68105 47.2678C6.22066 47.0896 5.81494 46.7926 5.47532 46.385C5.14937 45.9939 4.89159 45.4775 4.70908 44.8502C4.53476 44.2506 4.44632 43.5065 4.44632 42.6387C4.44632 41.7931 4.53492 41.0639 4.70988 40.4712C4.89224 39.8527 5.14969 39.341 5.47532 38.9504C5.81511 38.5426 6.22082 38.2456 6.68105 38.0677C7.11249 37.9007 7.57433 37.8159 8.05353 37.8159C8.5403 37.8159 9.00599 37.9007 9.43776 38.0677C9.89606 38.2451 10.3026 38.5408 10.6461 38.9469C10.977 39.3386 11.2372 39.8512 11.4202 40.4712C11.5951 41.065 11.6839 41.7943 11.6839 42.6387C11.6839 43.5056 11.5955 44.2496 11.421 44.8502C11.238 45.4792 10.9775 45.9966 10.6464 46.3884C10.3029 46.7942 9.89638 47.0901 9.43792 47.2678C9.00567 47.4349 8.54013 47.5195 8.05353 47.5195ZM8.05353 40.4568C7.98921 40.4568 7.90141 40.4642 7.84834 40.4996C7.77855 40.5461 7.72147 40.6075 7.67435 40.6866C7.60858 40.7971 7.556 40.9264 7.51773 41.0716C7.47174 41.2456 7.43877 41.4225 7.41931 41.5979C7.39841 41.7862 7.38603 41.9708 7.38265 42.1472C7.37863 42.3399 7.37686 42.5034 7.37686 42.6387C7.37686 42.8625 7.38442 43.1346 7.39921 43.4477C7.4124 43.7285 7.45405 44.0023 7.52319 44.2622C7.58076 44.4791 7.66695 44.6552 7.78643 44.8006C7.81039 44.8298 7.85976 44.89 8.05369 44.89C8.26339 44.89 8.31886 44.8237 8.34266 44.7954C8.46359 44.6513 8.55027 44.4769 8.60719 44.2625C8.67618 44.0031 8.71783 43.7291 8.73117 43.4478C8.74597 43.1315 8.75353 42.8593 8.75353 42.6388C8.75353 42.5036 8.7516 42.3399 8.7479 42.148C8.74452 41.9752 8.73069 41.794 8.70689 41.6095C8.68309 41.4265 8.64852 41.2417 8.60414 41.0608C8.57037 40.9232 8.52036 40.8002 8.45619 40.6961C8.40602 40.6152 8.34508 40.552 8.27046 40.5033C8.22302 40.4728 8.14986 40.4568 8.05353 40.4568Z" fill="#BDBDBD"/>
<path d="M8.05354 38.459C8.46263 38.459 8.84664 38.5285 9.20556 38.6674C9.56448 38.8063 9.88095 39.0379 10.155 39.3621C10.4288 39.6863 10.6449 40.1166 10.8033 40.6531C10.9614 41.1897 11.0407 41.8514 11.0407 42.6387C11.0407 43.4492 10.9614 44.1265 10.8033 44.6706C10.6451 45.2148 10.4288 45.649 10.155 45.9732C9.88079 46.2974 9.56448 46.5289 9.20556 46.6679C8.84664 46.8068 8.46263 46.8763 8.05354 46.8763C7.65217 46.8763 7.27202 46.8068 6.9131 46.6679C6.55418 46.5289 6.23964 46.2974 5.96949 45.9732C5.69917 45.649 5.48498 45.2148 5.3269 44.6706C5.16867 44.1265 5.08955 43.4492 5.08955 42.6387C5.08955 41.8514 5.16851 41.1897 5.3269 40.6531C5.48498 40.1168 5.69917 39.6863 5.96949 39.3621C6.23964 39.0379 6.55418 38.8063 6.9131 38.6674C7.27202 38.5285 7.65217 38.459 8.05354 38.459ZM8.05354 45.5332C8.39316 45.5332 8.65367 45.4253 8.83506 45.209C9.01629 44.9931 9.14767 44.7326 9.22872 44.4275C9.30976 44.1228 9.35784 43.8063 9.37344 43.4781C9.38888 43.1501 9.3966 42.8703 9.3966 42.6387C9.3966 42.4998 9.39467 42.3319 9.39081 42.135C9.38695 41.9382 9.37151 41.7356 9.3445 41.5272C9.31732 41.3188 9.27873 41.1123 9.22872 40.9078C9.17854 40.7034 9.10313 40.5199 9.00294 40.3578C8.90244 40.1957 8.77508 40.0645 8.62087 39.9642C8.46633 39.8638 8.27722 39.8136 8.05354 39.8136C7.82954 39.8136 7.64252 39.8638 7.492 39.9642C7.34149 40.0645 7.21783 40.1957 7.12151 40.3578C7.02486 40.5199 6.9496 40.7034 6.89573 40.9078C6.8417 41.1123 6.80311 41.3188 6.77995 41.5272C6.7568 41.7356 6.74313 41.9382 6.73943 42.135C6.73541 42.3319 6.73364 42.4998 6.73364 42.6387C6.73364 42.8703 6.7412 43.1501 6.7568 43.4781C6.77223 43.8063 6.82048 44.1226 6.90152 44.4275C6.98257 44.7326 7.11186 44.9931 7.28939 45.209C7.46692 45.4253 7.72164 45.5332 8.05354 45.5332ZM8.05354 37.1726C7.49458 37.1726 6.95459 37.2719 6.44853 37.4678C5.88522 37.6858 5.39139 38.0461 4.98101 38.5386C4.59909 38.9967 4.30015 39.5858 4.09287 40.2891C3.89782 40.9501 3.8031 41.7187 3.8031 42.6387C3.8031 43.5804 3.89749 44.3625 4.09159 45.03C4.29871 45.7427 4.59813 46.3374 4.98133 46.7971C5.39123 47.2892 5.88506 47.6494 6.44853 47.8676C6.95475 48.0635 7.49458 48.1629 8.05354 48.1629C8.62006 48.1629 9.16391 48.0637 9.66981 47.8678C10.2302 47.6509 10.7239 47.2929 11.1373 46.8039C11.5273 46.3424 11.8304 45.7458 12.0385 45.0302C12.2327 44.3619 12.327 43.5797 12.327 42.6389C12.327 41.7198 12.2321 40.9513 12.0372 40.2895C11.8286 39.583 11.5262 38.9919 11.1377 38.532C10.7237 38.0425 10.2301 37.6846 9.66981 37.4678C9.16423 37.2719 8.62022 37.1726 8.05354 37.1726ZM8.06512 43.6867C8.05386 43.5982 8.04614 43.5085 8.0418 43.4178C8.02733 43.1131 8.02009 42.8511 8.02009 42.6387C8.02009 42.507 8.02186 42.3478 8.02556 42.1613C8.02862 42.0037 8.03971 41.8387 8.05853 41.6693C8.05949 41.66 8.06062 41.6507 8.06174 41.6415C8.06415 41.6589 8.06657 41.6763 8.06882 41.6936C8.0894 41.8533 8.10146 42.0111 8.10452 42.1609C8.10821 42.3473 8.11014 42.507 8.11014 42.6389C8.11014 42.8482 8.10291 43.1103 8.08844 43.418C8.08409 43.5087 8.07638 43.5984 8.06512 43.6867Z" fill="#1D1D1D"/>
<path d="M7.94034 36.0956C7.58511 36.0956 7.29711 35.8076 7.29711 35.4524V30.8392H5.9026C5.54737 30.8392 5.25937 30.5512 5.25937 30.1959V28.9571C5.25937 28.7834 5.32964 28.6171 5.45394 28.496C5.57423 28.379 5.7352 28.3138 5.9026 28.3138C5.90838 28.3138 5.98493 28.3155 6.01709 28.3155C6.22131 28.3155 6.42104 28.2973 6.61079 28.2614C6.80102 28.2257 6.97116 28.1632 7.11717 28.0757C7.25273 27.9943 7.36513 27.8888 7.46065 27.7533C7.54829 27.6285 7.60875 27.46 7.63995 27.2525C7.68707 26.9377 7.9577 26.7047 8.2761 26.7047H9.58442C9.93965 26.7047 10.2276 26.9927 10.2276 27.3479V35.4525C10.2276 35.8078 9.93965 36.0958 9.58442 36.0958H7.94034V36.0956Z" fill="#BDBDBD"/>
<path d="M9.5844 27.3477V35.4524H7.94031V30.196H5.90257V28.9571C5.94101 28.9582 5.97912 28.9587 6.01723 28.9587C6.26214 28.9587 6.49997 28.937 6.7304 28.8934C6.9967 28.8432 7.23582 28.7545 7.44825 28.6271C7.66051 28.4998 7.83997 28.3319 7.98663 28.1235C8.13312 27.9151 8.22977 27.6567 8.27608 27.3477H9.5844ZM9.5844 26.0613H8.27608C7.63928 26.0613 7.09833 26.5272 7.00394 27.1569C6.98142 27.3074 6.94492 27.3683 6.93431 27.3834C6.89137 27.4444 6.84426 27.4893 6.78637 27.524C6.705 27.5729 6.60883 27.6073 6.49257 27.6292C6.34109 27.6578 6.18141 27.6723 6.01723 27.6723C5.99085 27.6723 5.96432 27.6719 5.93763 27.6711C5.92589 27.6708 5.91415 27.6706 5.90257 27.6706C5.56793 27.6706 5.24584 27.8011 5.00543 28.0352C4.7565 28.2774 4.61612 28.6099 4.61612 28.9571V30.196C4.61612 30.9064 5.19213 31.4824 5.90257 31.4824H6.65386V35.4524C6.65386 36.1628 7.22987 36.7389 7.94031 36.7389H9.5844C10.2948 36.7389 10.8709 36.1628 10.8709 35.4524V27.3477C10.8709 26.6373 10.2948 26.0613 9.5844 26.0613Z" fill="#1D1D1D"/>
<path d="M5.32692 18.1291C5.48499 17.5928 5.69919 17.1623 5.9695 16.8381C6.23966 16.5139 6.5542 16.2824 6.91312 16.1434C7.27204 16.0045 7.65218 15.935 8.05356 15.935C8.46265 15.935 8.84666 16.0045 9.20558 16.1434C9.5645 16.2824 9.88096 16.5139 10.155 16.8381C10.4288 17.1623 10.645 17.5926 10.8033 18.1291C10.9614 18.6657 11.0407 19.3274 11.0407 20.1147C11.0407 20.9252 10.9614 21.6025 10.8033 22.1467C10.6451 22.6908 10.4288 23.125 10.155 23.4492C9.8808 23.7734 9.5645 24.0049 9.20558 24.1439C8.84666 24.2828 8.46265 24.3523 8.05356 24.3523C7.65218 24.3523 7.27204 24.2828 6.91312 24.1439C6.5542 24.0049 6.23966 23.7734 5.9695 23.4492C5.69919 23.125 5.48499 22.6908 5.32692 22.1467C5.16869 21.6025 5.08957 20.9252 5.08957 20.1147C5.08957 19.3274 5.16869 18.6657 5.32692 18.1291Z" fill="#1D1D1D"/>
<path d="M8.05353 24.9955C7.57417 24.9955 7.11217 24.9107 6.68073 24.7436C6.22034 24.5655 5.81462 24.2683 5.47516 23.8608C5.14937 23.4699 4.89143 22.9535 4.70908 22.3262C4.53476 21.7267 4.44632 20.9827 4.44632 20.1148C4.44632 19.2693 4.53492 18.54 4.70988 17.9471C4.89224 17.3285 5.14985 16.8168 5.47532 16.4264C5.81462 16.0191 6.22018 15.7221 6.68073 15.5437C7.11217 15.3767 7.57401 15.2919 8.05337 15.2919C8.5403 15.2919 9.00615 15.3767 9.4376 15.5437C9.89638 15.7214 10.3029 16.0171 10.6461 16.423C10.9767 16.8143 11.237 17.3269 11.42 17.9471C11.595 18.541 11.6837 19.2704 11.6837 20.115C11.6837 20.9819 11.5953 21.7259 11.4208 22.3264C11.2378 22.9553 10.9773 23.4726 10.6462 23.8645C10.3031 24.2704 9.89654 24.5663 9.43776 24.744C9.00631 24.9107 8.54062 24.9955 8.05353 24.9955ZM8.05353 17.9328C7.98921 17.9328 7.90157 17.9402 7.84867 17.9754C7.77839 18.0224 7.72131 18.0835 7.67435 18.1626C7.60874 18.2729 7.556 18.4024 7.51773 18.5476C7.4719 18.7213 7.43877 18.8983 7.41931 19.0739C7.39841 19.2622 7.38586 19.447 7.38265 19.6234C7.37863 19.816 7.37686 19.9794 7.37686 20.1147C7.37686 20.3383 7.38442 20.6104 7.39921 20.9235C7.4124 21.2044 7.45405 21.4785 7.52319 21.7382C7.58076 21.9553 7.66695 22.1312 7.78627 22.2762C7.81039 22.3058 7.85992 22.366 8.05369 22.366C8.26323 22.366 8.31886 22.2995 8.34266 22.2714C8.46359 22.1273 8.55027 21.9528 8.60719 21.7383C8.67602 21.4791 8.71783 21.2051 8.73117 20.9237C8.74597 20.6075 8.75353 20.3351 8.75353 20.1148C8.75353 19.9794 8.7516 19.8159 8.7479 19.624C8.74452 19.4512 8.73069 19.2701 8.70689 19.0855C8.68309 18.9023 8.64852 18.7174 8.60414 18.5367C8.57037 18.399 8.52036 18.276 8.45603 18.1718C8.40618 18.0914 8.34524 18.028 8.27046 17.9793C8.22286 17.9486 8.14986 17.9328 8.05353 17.9328Z" fill="#BDBDBD"/>
<path d="M8.05354 15.935C8.46263 15.935 8.84664 16.0044 9.20556 16.1434C9.56448 16.2823 9.88095 16.5139 10.155 16.8381C10.4288 17.1622 10.6449 17.5926 10.8033 18.129C10.9614 18.6656 11.0407 19.3273 11.0407 20.1147C11.0407 20.9251 10.9614 21.6024 10.8033 22.1466C10.6451 22.6908 10.4288 23.125 10.155 23.4491C9.88079 23.7733 9.56448 24.0049 9.20556 24.1438C8.84664 24.2828 8.46263 24.3522 8.05354 24.3522C7.65217 24.3522 7.27202 24.2828 6.9131 24.1438C6.55418 24.0049 6.23964 23.7733 5.96949 23.4491C5.69917 23.125 5.48498 22.6908 5.3269 22.1466C5.16867 21.6024 5.08955 20.9251 5.08955 20.1147C5.08955 19.3273 5.16851 18.6656 5.3269 18.129C5.48498 17.5927 5.69917 17.1622 5.96949 16.8381C6.23964 16.5139 6.55418 16.2823 6.9131 16.1434C7.27202 16.0044 7.65217 15.935 8.05354 15.935ZM8.05354 23.0092C8.39316 23.0092 8.65367 22.9013 8.83506 22.685C9.01629 22.469 9.14767 22.2085 9.22872 21.9035C9.30976 21.5986 9.35784 21.2823 9.37344 20.9541C9.38888 20.626 9.3966 20.3462 9.3966 20.1147C9.3966 19.9757 9.39467 19.8078 9.39081 19.611C9.38695 19.4142 9.37151 19.2116 9.3445 19.0032C9.31732 18.7948 9.27873 18.5883 9.22872 18.3837C9.17854 18.1793 9.10313 17.9959 9.00294 17.8338C8.90244 17.6717 8.77508 17.5405 8.62087 17.4401C8.46633 17.3398 8.27722 17.2896 8.05354 17.2896C7.82954 17.2896 7.64252 17.3398 7.492 17.4401C7.34149 17.5405 7.21783 17.6717 7.12151 17.8338C7.02486 17.9959 6.9496 18.1793 6.89573 18.3837C6.8417 18.5883 6.80311 18.7948 6.77995 19.0032C6.7568 19.2116 6.74313 19.4142 6.73943 19.611C6.73541 19.8078 6.73364 19.9757 6.73364 20.1147C6.73364 20.3462 6.7412 20.626 6.7568 20.9541C6.77223 21.2823 6.82048 21.5986 6.90152 21.9035C6.98257 22.2085 7.11186 22.469 7.28939 22.685C7.46692 22.9013 7.72164 23.0092 8.05354 23.0092ZM8.05354 14.6485C7.49458 14.6485 6.95459 14.7479 6.44853 14.9438C5.88522 15.1618 5.39139 15.522 4.98101 16.0146C4.59909 16.4727 4.30015 17.0617 4.09287 17.7651C3.89782 18.426 3.8031 19.1947 3.8031 20.1147C3.8031 21.0563 3.89749 21.8385 4.09159 22.506C4.29871 23.2187 4.59813 23.8134 4.98133 24.2731C5.39123 24.7652 5.88506 25.1254 6.44853 25.3436C6.95475 25.5395 7.49458 25.6388 8.05354 25.6388C8.62006 25.6388 9.16391 25.5396 9.66981 25.3438C10.2302 25.1268 10.7239 24.7689 11.1373 24.2799C11.5273 23.8183 11.8304 23.2218 12.0385 22.5062C12.2327 21.8379 12.327 21.0557 12.327 20.1148C12.327 19.1958 12.2321 18.4273 12.0372 17.7654C11.8286 17.059 11.5262 16.4679 11.1377 16.008C10.7237 15.5185 10.2301 15.1605 9.66981 14.9438C9.16423 14.7479 8.62022 14.6485 8.05354 14.6485ZM8.06512 21.1626C8.05386 21.0742 8.04614 20.9845 8.0418 20.8938C8.02733 20.589 8.02009 20.3271 8.02009 20.1147C8.02009 19.983 8.02186 19.8238 8.02556 19.6372C8.02862 19.4796 8.03971 19.3146 8.05853 19.1453C8.05949 19.136 8.06062 19.1267 8.06174 19.1175C8.06415 19.1349 8.06657 19.1522 8.06882 19.1696C8.0894 19.3293 8.10146 19.487 8.10452 19.6369C8.10821 19.8233 8.11014 19.983 8.11014 20.1148C8.11014 20.3242 8.10291 20.5863 8.08844 20.8939C8.08409 20.9846 8.07638 21.0743 8.06512 21.1626Z" fill="#1D1D1D"/>
<path fill-rule="evenodd" clip-rule="evenodd" d="M20.4844 35.7861L18.1758 33.4775L15.8672 35.7861L13.7899 33.7087L16.0985 31.4001L13.7898 29.0914L15.867 27.0142L18.1757 29.3229L20.4844 27.0142L22.5618 29.0915L20.253 31.4003L22.5617 33.7089L20.4844 35.7861Z" fill="#BDBDBD"/>
<path d="M15.8673 27.9239L18.1759 30.2325L20.4845 27.9239L21.6522 29.0916L19.3436 31.4002L21.6522 33.7088L20.4845 34.8764L18.1759 32.5678L15.8673 34.8764L14.6996 33.7088L17.0082 31.4002L14.6996 29.0916L15.8673 27.9239ZM15.8673 26.1046L14.9576 27.0142L13.79 28.1819L12.8803 29.0916L13.79 30.0012L15.1889 31.4002L13.79 32.7991L12.8803 33.7088L13.79 34.6184L14.9576 35.7861L15.8673 36.6957L16.777 35.7861L18.1759 34.3871L19.5748 35.7861L20.4845 36.6957L21.3942 35.7861L22.5618 34.6184L23.4715 33.7088L22.5618 32.7991L21.1629 31.4002L22.5618 30.0012L23.4715 29.0916L22.5618 28.1819L21.3942 27.0142L20.4845 26.1046L19.5748 27.0142L18.1759 28.4132L16.777 27.0142L15.8673 26.1046Z" fill="#1D1D1D"/>
<path d="M32.2674 24.6955C30.7638 24.6955 29.2418 24.0367 28.0919 22.8879C26.9421 21.7394 26.2824 20.2191 26.2821 18.7168C26.2819 17.4795 26.7338 16.3465 27.554 15.5269L33.4189 9.66802C34.2393 8.84868 35.3728 8.39728 36.6112 8.39728C36.8481 8.39728 37.0858 8.41367 37.3221 8.44577C37.0239 8.06255 36.862 7.59344 36.862 7.09976C36.862 6.51199 37.0912 5.95964 37.5071 5.54432L39.9435 3.15051C40.7586 2.33626 41.8921 1.88509 43.1303 1.88509C44.6337 1.88509 46.1552 2.54392 47.3051 3.69246C48.4552 4.84143 49.1147 6.36233 49.1147 7.86464C49.1145 9.10195 48.6626 10.2348 47.842 11.0541L41.9775 16.9128C41.1573 17.7321 40.0238 18.1833 38.7858 18.1833C38.7856 18.1833 38.7856 18.1833 38.7856 18.1833C38.5485 18.1833 38.3108 18.1669 38.0741 18.1348C38.373 18.5187 38.5346 18.9878 38.5346 19.4815C38.5346 20.0688 38.3057 20.6209 37.8899 21.0363L35.4534 23.4303C34.6385 24.2445 33.505 24.6955 32.2674 24.6955ZM30.6903 18.6114C30.642 18.7677 30.7191 19.2944 31.2026 19.7775C31.5885 20.1631 32.016 20.2997 32.2648 20.2997C32.3215 20.2997 32.3569 20.2929 32.3744 20.2882L34.7841 17.9212C35.0766 17.6287 35.4416 17.4284 35.8401 17.3376C35.3998 17.0733 34.9854 16.7507 34.6103 16.3764C34.3075 16.0737 34.1036 15.6985 34.0153 15.2898L30.6903 18.6114ZM39.556 9.24363C39.9964 9.50818 40.4108 9.83052 40.7858 10.2051C41.0887 10.5075 41.2923 10.883 41.3809 11.2914L44.7061 7.96979C44.7543 7.81372 44.6779 7.28683 44.1942 6.80333C43.8086 6.4179 43.3811 6.28131 43.1323 6.28131C43.0749 6.28131 43.0395 6.28817 43.022 6.29282L40.6127 8.66007C40.3198 8.95273 39.9547 9.15286 39.556 9.24363Z" fill="#AE9CDB"/>
<path d="M43.13 2.77106C44.3512 2.77106 45.6565 3.29795 46.679 4.31941C48.5127 6.15158 48.7543 8.89185 47.2161 10.4283L41.3514 16.2869C40.6709 16.9666 39.7546 17.2984 38.7854 17.2984C37.564 17.2984 36.2588 16.7715 35.2362 15.7501C34.7228 15.2371 34.7232 14.4054 35.2362 13.8927C35.493 13.6363 35.8297 13.5081 36.1662 13.5081C36.5027 13.5081 36.839 13.6363 37.0956 13.8927C37.6278 14.4242 38.2716 14.6737 38.7834 14.6737C39.0794 14.6737 39.3313 14.5903 39.4921 14.4297L45.3572 8.57085C45.7959 8.13229 45.6593 7.01541 44.8196 6.17682C44.2876 5.64528 43.6441 5.39578 43.132 5.39578C42.836 5.39578 42.5839 5.47924 42.4232 5.63974L39.9919 8.02868C39.7351 8.28504 39.3986 8.41323 39.0623 8.41323C38.7258 8.41323 38.3896 8.28504 38.133 8.02868C37.6192 7.51596 37.6192 6.68423 38.133 6.1715L40.5642 3.78278C41.2445 3.10269 42.1608 2.77106 43.13 2.77106ZM36.611 9.28304C37.8323 9.28304 39.1374 9.80993 40.16 10.8314C40.6738 11.3446 40.6729 12.1758 40.16 12.6886C39.9032 12.9452 39.5669 13.0733 39.2304 13.0733C38.8941 13.0733 38.5576 12.9452 38.3006 12.6886C37.7684 12.157 37.1248 11.9075 36.613 11.9075C36.317 11.9075 36.0648 11.991 35.9039 12.1517L30.0388 18.0106C29.6004 18.4487 29.7373 19.5654 30.577 20.4042C31.1089 20.936 31.753 21.1855 32.2648 21.1855C32.5606 21.1855 32.8123 21.1022 32.9728 20.9417L35.4044 18.553C35.6612 18.2964 35.9975 18.1682 36.334 18.1682C36.6703 18.1682 37.0068 18.2964 37.2636 18.553C37.7772 19.0664 37.7768 19.8975 37.2636 20.4102L34.8324 22.7989C34.1523 23.4783 33.2362 23.81 32.2672 23.81C31.0459 23.81 29.7404 23.2831 28.7178 22.2616C26.8832 20.4294 26.6425 17.6894 28.1798 16.1537L34.0447 10.295C34.7252 9.61489 35.6418 9.28304 36.611 9.28304ZM43.13 1C41.6585 1 40.305 1.54128 39.318 2.524L36.8915 4.90829L36.8866 4.91316L36.8817 4.91803C36.2979 5.50071 35.9765 6.27555 35.9765 7.1002C35.9765 7.24986 35.9871 7.39774 36.0079 7.54319C34.7693 7.67071 33.6444 8.19184 32.7932 9.04218L26.9284 14.9011C25.9405 15.888 25.3966 17.2435 25.3966 18.7175C25.3968 20.4529 26.1513 22.2016 27.4663 23.5151C28.7809 24.8283 30.5307 25.5815 32.2672 25.5815C33.7385 25.5815 35.0916 25.0406 36.0783 24.0581L38.5049 21.6738L38.5102 21.6687L38.5155 21.6634C39.0987 21.081 39.4199 20.3064 39.4199 19.4824C39.4199 19.3327 39.4093 19.1846 39.3884 19.0389C40.6271 18.9114 41.7519 18.3905 42.6029 17.5402L48.4678 11.6813C49.4556 10.6946 49.9998 9.33927 50 7.86508C50 6.12944 49.246 4.38052 47.9309 3.06661C46.6159 1.75314 44.8661 1 43.13 1ZM41.2372 9.28791L43.3211 7.24034C43.3937 7.28085 43.4798 7.34129 43.5677 7.4294C43.6532 7.51463 43.7127 7.59809 43.7532 7.6696L41.6167 9.80395C41.5525 9.72603 41.4841 9.65076 41.4117 9.57836C41.3335 9.50022 41.2538 9.42428 41.1728 9.35012C41.1943 9.32975 41.216 9.30894 41.2372 9.28791ZM31.6434 18.9112L33.7795 16.7775C33.8437 16.8554 33.9119 16.9307 33.9843 17.0029C34.0626 17.081 34.1426 17.1574 34.2238 17.2316C34.2019 17.2522 34.1804 17.273 34.1589 17.2942L32.0757 19.3407C32.0031 19.3002 31.917 19.2395 31.8291 19.1516C31.7437 19.0662 31.6841 18.9827 31.6434 18.9112Z" fill="#1D1D1D"/>
</svg>
