<svg width="50" height="50" viewBox="0 0 50 50" fill="none" xmlns="http://www.w3.org/2000/svg">
<path fill-rule="evenodd" clip-rule="evenodd" d="M20.262 3.11096L1.3573 46.8891H29.7382L48.6427 3.11096H20.262Z" fill="#BDBDBD"/>
<path fill-rule="evenodd" clip-rule="evenodd" d="M19.6754 2.21863H50L30.3249 47.7814H0L19.6754 2.21863ZM20.8486 4.00327L2.71459 45.9968H29.1516L47.2854 4.00327H20.8486Z" fill="#1D1D1D"/>
<path fill-rule="evenodd" clip-rule="evenodd" d="M19.9459 24.3493H1.04141V19.8638H19.9459V13.9111L36.3372 22.1067L19.9459 30.302V24.3493Z" fill="#AE9CDB"/>
<path d="M20.8382 15.3549L34.3419 22.1065L20.8382 28.8582V23.4568H1.93351V20.7559H20.838V15.3549H20.8382ZM19.0536 12.4676V15.3552V18.9715H1.93351H0.148865V20.7562V23.457V25.2416H1.93351H19.0534V28.8584V31.746L21.6362 30.4546L35.1399 23.7028L38.3324 22.1065L35.1397 20.5103L21.6359 13.7588L19.0536 12.4676Z" fill="#1D1D1D"/>
</svg>
