<svg width="50" height="50" viewBox="0 0 50 50" fill="none" xmlns="http://www.w3.org/2000/svg">
<path fill-rule="evenodd" clip-rule="evenodd" d="M20.262 3.11093L1.3573 46.8891H29.7382L48.6427 3.11093H20.262Z" fill="#BDBDBD"/>
<path fill-rule="evenodd" clip-rule="evenodd" d="M19.6754 2.2186H50L30.3249 47.7814H1.52588e-05L19.6754 2.2186ZM20.8487 4.00324L2.71461 45.9967H29.1516L47.2854 4.00324H20.8487Z" fill="#1D1D1D"/>
<path d="M28.167 12.9955L27.6366 12.4652L27.1063 12.9955L18 22.1018L8.8937 12.9955L8.36337 12.4652L7.83304 12.9955L5.99549 14.833L5.46516 15.3634L5.99549 15.8937L15.1018 25L5.99549 34.1063L5.46516 34.6366L5.99549 35.167L7.83305 37.0045L8.36338 37.5348L8.89371 37.0045L18 27.8982L27.1063 37.0045L27.6366 37.5348L28.167 37.0045L30.0045 35.167L30.5348 34.6366L30.0045 34.1063L20.8982 25L30.0045 15.8937L30.5349 15.3634L30.0045 14.833L28.167 12.9955Z" fill="#AE9CDB" stroke="#1D1D1D" stroke-width="1.5"/>
</svg>
