<svg width="50" height="50" viewBox="0 0 50 50" fill="none" xmlns="http://www.w3.org/2000/svg">
<g clip-path="url(#clip0)">
<circle cx="25.2767" cy="19.5" r="17.5" stroke="#58A5CC" stroke-width="2"/>
<rect x="24.7751" y="2.04053" width="1.00326" height="35.9595" fill="#58A5CC"/>
<path d="M42.9812 19.161C42.9812 19.161 39.7878 24.182 25.2767 24.182C10.7657 24.182 7.57227 19.161 7.57227 19.161" stroke="#58A5CC"/>
<path d="M44.5538 43.4465C44.5539 43.4465 44.5539 43.4478 44.5535 43.4502C44.5535 43.4478 44.5537 43.4465 44.5538 43.4465ZM44.4101 43.2357C44.529 43.3633 44.5502 43.4335 44.5534 43.4509C44.5502 43.4683 44.529 43.5384 44.4101 43.666C44.2469 43.8411 43.9574 44.0581 43.4994 44.2958C42.5858 44.7699 41.1984 45.2266 39.4002 45.6214C35.82 46.4072 30.8261 46.9017 25.2767 46.9017C19.7274 46.9017 14.7335 46.4072 11.1533 45.6214C9.35511 45.2266 7.96764 44.7699 7.05408 44.2958C6.59609 44.0581 6.30662 43.8411 6.14341 43.666C6.02449 43.5384 6.00329 43.4683 6.00011 43.4509C6.00329 43.4335 6.02449 43.3633 6.14341 43.2357C6.30662 43.0607 6.59609 42.8437 7.05408 42.606C7.96764 42.1319 9.35511 41.6751 11.1533 41.2804C14.7335 40.4945 19.7274 40 25.2767 40C30.8261 40 35.82 40.4945 39.4002 41.2804C41.1984 41.6751 42.5858 42.1319 43.4994 42.606C43.9574 42.8437 44.2469 43.0607 44.4101 43.2357ZM5.99966 43.4465C5.99976 43.4466 5.99996 43.4478 6 43.4502C5.99958 43.4478 5.99957 43.4465 5.99966 43.4465ZM5.99966 43.4552C5.99957 43.4552 5.99958 43.454 6 43.4515C5.99996 43.454 5.99976 43.4552 5.99966 43.4552ZM44.5535 43.4515C44.5539 43.454 44.5539 43.4552 44.5538 43.4552C44.5537 43.4552 44.5535 43.454 44.5535 43.4515Z" stroke="#F3F3F3" stroke-width="2"/>
</g>
<defs>
<clipPath id="clip0">
<rect width="40.5535" height="46.9017" fill="white" transform="translate(5 1)"/>
</clipPath>
</defs>
</svg>
