<svg width="50" height="50" viewBox="0 0 50 50" fill="none" xmlns="http://www.w3.org/2000/svg">
<path fill-rule="evenodd" clip-rule="evenodd" d="M20.262 3.11096L1.3573 46.8891H29.7382L48.6427 3.11096H20.262Z" fill="#BDBDBD"/>
<path fill-rule="evenodd" clip-rule="evenodd" d="M19.6754 2.21863H50L30.3249 47.7814H0L19.6754 2.21863ZM20.8486 4.00327L2.71459 45.9968H29.1516L47.2854 4.00327H20.8486Z" fill="#1D1D1D"/>
<path fill-rule="evenodd" clip-rule="evenodd" d="M30.0541 24.3493H48.9586V19.8638H30.0541V13.9111L13.6629 22.1067L30.0541 30.302V24.3493Z" fill="#AE9CDB"/>
<path d="M29.1618 15.3549L15.6581 22.1065L29.1618 28.8582V23.4568H48.0665V20.7559H29.162V15.3549H29.1618ZM30.9465 12.4676V15.3552V18.9715H48.0665H49.8512V20.7562V23.457V25.2416H48.0665H30.9467V28.8584V31.746L28.3639 30.4546L14.8602 23.7028L11.6676 22.1065L14.8604 20.5103L28.3641 13.7588L30.9465 12.4676Z" fill="#1D1D1D"/>
</svg>
