<svg width="50" height="50" viewBox="0 0 50 50" fill="none" xmlns="http://www.w3.org/2000/svg">
    <g clip-path="url(#clip0)">
        <circle cx="25.2767" cy="20.5" r="17.5" stroke="#58A5CC" stroke-width="2" />
        <path
            d="M44.5538 44.4465C44.5539 44.4465 44.5539 44.4478 44.5535 44.4502C44.5535 44.4478 44.5537 44.4465 44.5538 44.4465ZM44.4101 44.2357C44.529 44.3633 44.5502 44.4335 44.5534 44.4509C44.5502 44.4683 44.529 44.5384 44.4101 44.666C44.2469 44.8411 43.9574 45.0581 43.4994 45.2958C42.5858 45.7699 41.1984 46.2266 39.4002 46.6214C35.82 47.4072 30.8261 47.9017 25.2767 47.9017C19.7274 47.9017 14.7335 47.4072 11.1533 46.6214C9.35511 46.2266 7.96764 45.7699 7.05408 45.2958C6.59609 45.0581 6.30662 44.8411 6.14341 44.666C6.02449 44.5384 6.00329 44.4683 6.00011 44.4509C6.00329 44.4335 6.02449 44.3633 6.14341 44.2357C6.30662 44.0607 6.59609 43.8437 7.05408 43.606C7.96764 43.1319 9.35511 42.6751 11.1533 42.2804C14.7335 41.4945 19.7274 41 25.2767 41C30.8261 41 35.82 41.4945 39.4002 42.2804C41.1984 42.6751 42.5858 43.1319 43.4994 43.606C43.9574 43.8437 44.2469 44.0607 44.4101 44.2357ZM5.99966 44.4465C5.99976 44.4466 5.99996 44.4478 6 44.4502C5.99958 44.4478 5.99957 44.4465 5.99966 44.4465ZM5.99966 44.4552C5.99957 44.4552 5.99958 44.454 6 44.4515C5.99996 44.454 5.99976 44.4552 5.99966 44.4552ZM44.5535 44.4515C44.5539 44.454 44.5539 44.4552 44.5538 44.4552C44.5537 44.4552 44.5535 44.454 44.5535 44.4515Z"
            stroke="#F3F3F3" stroke-width="2" />
    </g>
    <defs>
        <clipPath id="clip0">
            <rect width="40.5535" height="46.9017" fill="white" transform="translate(5 2)" />
        </clipPath>
    </defs>
</svg>
