<svg width="50" height="50" viewBox="0 0 50 50" fill="none" xmlns="http://www.w3.org/2000/svg">
<g clip-path="url(#clip0)">
<path d="M40.4434 9.28567L24.2767 16.9866L8.11005 9.28567" stroke="#58A5CC"/>
<path d="M24.2767 2.10766L39.9974 9.59618L39.9975 29.4038L24.2767 36.8923L8.55603 29.4038V9.59624L24.2767 2.10766Z" stroke="#58A5CC" stroke-width="2"/>
<rect x="23.7833" y="16.6663" width="0.986845" height="20.2292" fill="#58A5CC"/>
<path d="M43.5538 43.4465C43.5539 43.4465 43.5539 43.4478 43.5535 43.4502C43.5535 43.4478 43.5537 43.4465 43.5538 43.4465ZM43.4101 43.2357C43.529 43.3633 43.5502 43.4335 43.5534 43.4509C43.5502 43.4683 43.529 43.5384 43.4101 43.666C43.2469 43.8411 42.9574 44.0581 42.4994 44.2958C41.5858 44.7699 40.1984 45.2266 38.4002 45.6214C34.82 46.4072 29.8261 46.9017 24.2767 46.9017C18.7274 46.9017 13.7335 46.4072 10.1533 45.6214C8.35511 45.2266 6.96764 44.7699 6.05408 44.2958C5.59609 44.0581 5.30662 43.8411 5.14341 43.666C5.02449 43.5384 5.00329 43.4683 5.00011 43.4509C5.00329 43.4335 5.02449 43.3633 5.14341 43.2357C5.30662 43.0607 5.59609 42.8437 6.05408 42.606C6.96764 42.1319 8.35511 41.6751 10.1533 41.2804C13.7335 40.4945 18.7274 40 24.2767 40C29.8261 40 34.82 40.4945 38.4002 41.2804C40.1984 41.6751 41.5858 42.1319 42.4994 42.606C42.9574 42.8437 43.2469 43.0607 43.4101 43.2357ZM4.99966 43.4465C4.99976 43.4466 4.99996 43.4478 5 43.4502C4.99958 43.4478 4.99957 43.4465 4.99966 43.4465ZM4.99966 43.4552C4.99957 43.4552 4.99958 43.454 5 43.4515C4.99996 43.454 4.99976 43.4552 4.99966 43.4552ZM43.5535 43.4515C43.5539 43.454 43.5539 43.4552 43.5538 43.4552C43.5537 43.4552 43.5535 43.454 43.5535 43.4515Z" stroke="#F3F3F3" stroke-width="2"/>
</g>
<defs>
<clipPath id="clip0">
<rect width="40.5535" height="46.9017" fill="white" transform="translate(4 1)"/>
</clipPath>
</defs>
</svg>
