<svg width="50" height="50" viewBox="0 0 50 50" fill="none" xmlns="http://www.w3.org/2000/svg">
<g clip-path="url(#clip0)">
<path d="M19.3009 8.55769L25.2767 2.43204L31.2526 8.55769H29.2833H28.2833V9.55769V9.80281V10.4714L28.9011 10.7269C31.2267 11.6888 33.0879 13.55 34.0499 15.8756L34.3054 16.4934H34.9739H35.219H36.219V15.4934V13.5241L42.3447 19.5L36.219 25.4759V23.5066V22.5066H35.219H34.9739H34.3054L34.0499 23.1244C33.0879 25.45 31.2267 27.3112 28.9011 28.2731L28.2833 28.5286V29.1972V29.4423V30.4423H29.2833H31.2526L25.2767 36.568L19.3009 30.4423H21.2702H22.2702V29.4423V29.1971V28.5286L21.6524 28.2731C19.3268 27.3111 17.4656 25.45 16.5037 23.1244L16.2481 22.5066H15.5796H15.3344H14.3344V23.5066V25.4759L8.20878 19.5L14.3344 13.5241V15.4934V16.4934H15.3344H15.5796H16.2481L16.5037 15.8756C17.4656 13.55 19.3268 11.6888 21.6524 10.7269L22.2702 10.4714V9.80283V9.55769V8.55769H21.2702H19.3009Z" stroke="#58A5CC" stroke-width="2"/>
<path d="M44.5538 43.4465C44.5539 43.4465 44.5539 43.4478 44.5535 43.4502C44.5535 43.4478 44.5537 43.4465 44.5538 43.4465ZM44.4101 43.2357C44.529 43.3633 44.5502 43.4335 44.5534 43.4509C44.5502 43.4683 44.529 43.5384 44.4101 43.666C44.2469 43.8411 43.9574 44.0581 43.4994 44.2958C42.5858 44.7699 41.1984 45.2266 39.4002 45.6214C35.82 46.4072 30.8261 46.9017 25.2767 46.9017C19.7274 46.9017 14.7335 46.4072 11.1533 45.6214C9.35511 45.2266 7.96764 44.7699 7.05408 44.2958C6.59609 44.0581 6.30662 43.8411 6.14341 43.666C6.02449 43.5384 6.00329 43.4683 6.00011 43.4509C6.00329 43.4335 6.02449 43.3633 6.14341 43.2357C6.30662 43.0607 6.59609 42.8437 7.05408 42.606C7.96764 42.1319 9.35511 41.6751 11.1533 41.2804C14.7335 40.4945 19.7274 40 25.2767 40C30.8261 40 35.82 40.4945 39.4002 41.2804C41.1984 41.6751 42.5858 42.1319 43.4994 42.606C43.9574 42.8437 44.2469 43.0607 44.4101 43.2357ZM5.99966 43.4465C5.99976 43.4466 5.99996 43.4478 6 43.4502C5.99958 43.4478 5.99957 43.4465 5.99966 43.4465ZM5.99966 43.4552C5.99957 43.4552 5.99958 43.454 6 43.4515C5.99996 43.454 5.99976 43.4552 5.99966 43.4552ZM44.5535 43.4515C44.5539 43.454 44.5539 43.4552 44.5538 43.4552C44.5537 43.4552 44.5535 43.454 44.5535 43.4515Z" stroke="#F3F3F3" stroke-width="2"/>
</g>
<defs>
<clipPath id="clip0">
<rect width="40.5535" height="46.9017" fill="white" transform="translate(5 1)"/>
</clipPath>
</defs>
</svg>
